<svg width="32" height="32" viewBox="0 0 32 32" fill="none" xmlns="http://www.w3.org/2000/svg">
<path d="M26.6267 11.6667H22.7067C21.0133 11.6667 20 10.6533 20 8.96001V5.04001C20 3.34668 21.0133 2.33334 22.7067 2.33334H26.6267C28.32 2.33334 29.3333 3.34668 29.3333 5.04001V8.96001C29.3333 10.6533 28.32 11.6667 26.6267 11.6667ZM26.92 7.25334C26.76 7.09334 26.5467 7.01334 26.3333 7.01334C26.12 7.01334 25.9067 7.09334 25.7467 7.25334L25.5067 7.49334V4.50668C25.5067 4.04001 25.1333 3.66668 24.6667 3.66668C24.2 3.66668 23.8267 4.04001 23.8267 4.50668V7.49334L23.5867 7.25334C23.2667 6.93334 22.7333 6.93334 22.4133 7.25334C22.0933 7.57334 22.0933 8.10668 22.4133 8.42668L24.08 10.0933C24.1467 10.16 24.24 10.2133 24.3333 10.2533C24.36 10.2667 24.3867 10.2667 24.4133 10.28C24.48 10.3067 24.5467 10.32 24.6267 10.32C24.6533 10.32 24.68 10.32 24.7067 10.32C24.8 10.32 24.88 10.3067 24.9733 10.2667C24.9867 10.2667 24.9867 10.2667 25 10.2667C25.0933 10.2267 25.1733 10.1733 25.24 10.1067C25.2533 10.0933 25.2533 10.0933 25.2667 10.0933L26.9333 8.42668C27.2533 8.10668 27.2533 7.57334 26.92 7.25334Z" fill="#2F99D4"/>
<path d="M2.66699 15.28V21.9467C2.66699 25 5.13366 27.4667 8.18699 27.4667H23.8003C26.8537 27.4667 29.3337 24.9867 29.3337 21.9333V15.28C29.3337 14.3867 28.6137 13.6667 27.7203 13.6667H4.28033C3.38699 13.6667 2.66699 14.3867 2.66699 15.28ZM10.667 23H8.00033C7.45366 23 7.00033 22.5467 7.00033 22C7.00033 21.4533 7.45366 21 8.00033 21H10.667C11.2137 21 11.667 21.4533 11.667 22C11.667 22.5467 11.2137 23 10.667 23ZM19.3337 23H14.0003C13.4537 23 13.0003 22.5467 13.0003 22C13.0003 21.4533 13.4537 21 14.0003 21H19.3337C19.8803 21 20.3337 21.4533 20.3337 22C20.3337 22.5467 19.8803 23 19.3337 23Z" fill="#2F99D4"/>
<path d="M18.0003 6.14666V10.0533C18.0003 10.9467 17.2803 11.6667 16.387 11.6667H4.28033C3.37366 11.6667 2.66699 10.92 2.66699 10.0267C2.68033 8.51999 3.28033 7.14666 4.28033 6.14666C5.28033 5.14666 6.66699 4.53333 8.18699 4.53333H16.387C17.2803 4.53333 18.0003 5.25333 18.0003 6.14666Z" fill="#2F99D4"/>
</svg>
