<svg width="20" height="20" viewBox="0 0 20 20" fill="none" xmlns="http://www.w3.org/2000/svg">
<path d="M16.2586 4.875L11.3086 2.01666C10.5003 1.55 9.50026 1.55 8.68359 2.01666L3.74193 4.875C2.93359 5.34166 2.43359 6.20833 2.43359 7.15V12.85C2.43359 13.7833 2.93359 14.65 3.74193 15.125L8.69193 17.9833C9.50026 18.45 10.5003 18.45 11.3169 17.9833L16.2669 15.125C17.0753 14.6583 17.5753 13.7917 17.5753 12.85V7.15C17.5669 6.20833 17.0669 5.35 16.2586 4.875ZM10.0003 6.11666C11.0753 6.11666 11.9419 6.98333 11.9419 8.05833C11.9419 9.13333 11.0753 10 10.0003 10C8.92526 10 8.05859 9.13333 8.05859 8.05833C8.05859 6.99166 8.92526 6.11666 10.0003 6.11666ZM12.2336 13.8833H7.76693C7.09193 13.8833 6.70026 13.1333 7.07526 12.575C7.64193 11.7333 8.74193 11.1667 10.0003 11.1667C11.2586 11.1667 12.3586 11.7333 12.9253 12.575C13.3003 13.125 12.9003 13.8833 12.2336 13.8833Z" fill="#6C7D98" fill-opacity="0.8"/>
</svg>
