<svg width="20" height="20" viewBox="0 0 20 20" fill="none" xmlns="http://www.w3.org/2000/svg">
<path d="M13.492 1.66666H6.50866C3.47533 1.66666 1.66699 3.475 1.66699 6.50833V13.4833C1.66699 16.525 3.47533 18.3333 6.50866 18.3333H13.4837C16.517 18.3333 18.3253 16.525 18.3253 13.4917V6.50833C18.3337 3.475 16.5253 1.66666 13.492 1.66666ZM6.39199 4.58333C6.39199 4.24166 6.67533 3.95833 7.01699 3.95833C7.35866 3.95833 7.64199 4.24166 7.64199 4.58333V7.83333C7.64199 8.175 7.35866 8.45833 7.01699 8.45833C6.67533 8.45833 6.39199 8.175 6.39199 7.83333V4.58333ZM7.99288 13.6665C7.79197 13.7624 7.64199 13.9532 7.64199 14.1758V15.4167C7.64199 15.7583 7.35866 16.0417 7.01699 16.0417C6.67533 16.0417 6.39199 15.7583 6.39199 15.4167V14.1758C6.39199 13.9532 6.24198 13.7624 6.04117 13.6664C5.27643 13.3006 4.75033 12.5262 4.75033 11.625C4.75033 10.375 5.76699 9.35 7.01699 9.35C8.26699 9.35 9.29199 10.3667 9.29199 11.625C9.29199 12.5263 8.75941 13.3009 7.99288 13.6665ZM13.6087 15.4167C13.6087 15.7583 13.3253 16.0417 12.9837 16.0417C12.642 16.0417 12.3587 15.7583 12.3587 15.4167V12.1667C12.3587 11.825 12.642 11.5417 12.9837 11.5417C13.3253 11.5417 13.6087 11.825 13.6087 12.1667V15.4167ZM12.9837 10.6417C11.7337 10.6417 10.7087 9.625 10.7087 8.36666C10.7087 7.46533 11.2412 6.6908 12.0078 6.32513C12.2087 6.22928 12.3587 6.03847 12.3587 5.81587V4.58333C12.3587 4.24166 12.642 3.95833 12.9837 3.95833C13.3253 3.95833 13.6087 4.24166 13.6087 4.58333V5.82421C13.6087 6.0468 13.7587 6.23757 13.9595 6.33361C14.7242 6.69934 15.2503 7.47378 15.2503 8.375C15.2503 9.625 14.2337 10.6417 12.9837 10.6417Z" fill="#6C7D98" fill-opacity="0.8"/>
</svg>
