<svg width="20" height="20" viewBox="0 0 20 20" fill="none" xmlns="http://www.w3.org/2000/svg">
<path d="M19.1667 12.6836C18.825 12.6836 18.5417 12.9669 18.5417 13.3086C18.5417 15.7753 16.825 17.8419 14.5167 18.3836L14.7417 18.0086C14.9167 17.7086 14.825 17.3253 14.525 17.1503C14.2334 16.9753 13.8417 17.0669 13.6667 17.3669L12.7917 18.8253C12.675 19.0169 12.675 19.2586 12.7834 19.4503C12.8917 19.6503 13.1 19.7669 13.325 19.7669C16.8834 19.7669 19.7834 16.8669 19.7834 13.3086C19.7917 12.9669 19.5084 12.6836 19.1667 12.6836Z" fill="#6C7D98" fill-opacity="0.8"/>
<path d="M6.66671 0.183594C3.10837 0.183594 0.208374 3.08359 0.208374 6.64193C0.208374 6.98359 0.491707 7.26693 0.833374 7.26693C1.17504 7.26693 1.45837 6.98359 1.45837 6.64193C1.45837 4.17526 3.17504 2.10859 5.48337 1.56693L5.25837 1.94193C5.08337 2.24193 5.17504 2.62526 5.47504 2.80026C5.76671 2.97526 6.15837 2.88359 6.33337 2.58359L7.20837 1.12526C7.31671 0.933594 7.32504 0.70026 7.20837 0.50026C7.10004 0.308594 6.89171 0.183594 6.66671 0.183594Z" fill="#6C7D98" fill-opacity="0.8"/>
<path d="M17.9166 7.22467C17.9166 9.79134 16.05 11.908 13.6083 12.2997C13.6083 12.2913 13.6083 12.2913 13.6083 12.283C13.3666 9.17467 10.85 6.64134 7.69995 6.39134C8.09162 3.94967 10.2083 2.08301 12.775 2.08301C15.6166 2.08301 17.9166 4.38301 17.9166 7.22467Z" fill="#6C7D98" fill-opacity="0.8"/>
<path d="M8.17506 11.8333C8.17506 11.7083 8.03339 11.5166 7.85839 11.5166H6.14172V12.1416H7.85839C8.03339 12.1499 8.17506 12.0083 8.17506 11.8333Z" fill="#6C7D98" fill-opacity="0.8"/>
<path d="M8.19172 13.4004H7.85839H6.14172V14.0254H8.20006C8.46672 14.0254 8.65006 13.8587 8.65006 13.7087C8.65006 13.5587 8.45839 13.4004 8.19172 13.4004Z" fill="#6C7D98" fill-opacity="0.8"/>
<path d="M12.3584 12.375C12.1667 9.85 10.15 7.83333 7.62504 7.64167C7.49171 7.63333 7.36671 7.625 7.22504 7.625C4.38337 7.625 2.08337 9.925 2.08337 12.775C2.08337 15.6167 4.38337 17.9167 7.22504 17.9167C10.0667 17.9167 12.375 15.6167 12.375 12.775C12.375 12.6333 12.3667 12.5083 12.3584 12.375ZM8.19171 15.275H7.64171V15.5917C7.64171 15.9333 7.35837 16.2167 7.01671 16.2167C6.67504 16.2167 6.39171 15.9333 6.39171 15.5917V15.275H5.51671C5.17504 15.275 4.89171 14.9917 4.89171 14.65V12.775V10.9C4.89171 10.5583 5.17504 10.275 5.51671 10.275H6.39171V9.95833C6.39171 9.61667 6.67504 9.33333 7.01671 9.33333C7.35837 9.33333 7.64171 9.61667 7.64171 9.95833V10.275H7.85837C8.69171 10.275 9.42504 11.0083 9.42504 11.8417C9.42504 12.0833 9.36671 12.3083 9.26671 12.5167C9.65004 12.8 9.89171 13.2333 9.89171 13.7167C9.89171 14.575 9.13337 15.275 8.19171 15.275Z" fill="#6C7D98" fill-opacity="0.8"/>
</svg>
