<svg width="18" height="18" viewBox="0 0 18 18" fill="none" xmlns="http://www.w3.org/2000/svg">
<path d="M16.3833 5.97501L10.6083 1.35834C9.71666 0.641673 8.275 0.641673 7.39166 1.35001L1.61666 5.97501C0.966664 6.49167 0.549997 7.58334 0.691664 8.40001L1.8 15.0333C2 16.2167 3.13333 17.175 4.33333 17.175H13.6667C14.8583 17.175 16 16.2083 16.2 15.0333L17.3083 8.40001C17.4417 7.58334 17.025 6.49167 16.3833 5.97501ZM9 11.9167C7.85 11.9167 6.91666 10.9833 6.91666 9.83334C6.91666 8.68334 7.85 7.75001 9 7.75001C10.15 7.75001 11.0833 8.68334 11.0833 9.83334C11.0833 10.9833 10.15 11.9167 9 11.9167Z" fill="#6C7D98" fill-opacity="0.8"/>
</svg>
