<svg width="20" height="20" viewBox="0 0 20 20" fill="none" xmlns="http://www.w3.org/2000/svg">
<path d="M18.3333 6.29134C18.3333 6.84134 17.8833 7.29134 17.3333 7.29134H2.66663C2.11663 7.29134 1.66663 6.84134 1.66663 6.29134V6.28301C1.66663 4.37467 3.20829 2.83301 5.11663 2.83301H14.875C16.7833 2.83301 18.3333 4.38301 18.3333 6.29134Z" fill="#6C7D98" fill-opacity="0.8"/>
<path d="M1.66663 9.54199V13.717C1.66663 15.6253 3.20829 17.167 5.11663 17.167H14.875C16.7833 17.167 18.3333 15.617 18.3333 13.7087V9.54199C18.3333 8.99199 17.8833 8.54199 17.3333 8.54199H2.66663C2.11663 8.54199 1.66663 8.99199 1.66663 9.54199ZM6.66663 14.3753H4.99996C4.65829 14.3753 4.37496 14.092 4.37496 13.7503C4.37496 13.4087 4.65829 13.1253 4.99996 13.1253H6.66663C7.00829 13.1253 7.29163 13.4087 7.29163 13.7503C7.29163 14.092 7.00829 14.3753 6.66663 14.3753ZM12.0833 14.3753H8.74996C8.40829 14.3753 8.12496 14.092 8.12496 13.7503C8.12496 13.4087 8.40829 13.1253 8.74996 13.1253H12.0833C12.425 13.1253 12.7083 13.4087 12.7083 13.7503C12.7083 14.092 12.425 14.3753 12.0833 14.3753Z" fill="#6C7D98" fill-opacity="0.8"/>
</svg>
