<svg width="20" height="20" viewBox="0 0 20 20" fill="none" xmlns="http://www.w3.org/2000/svg">
<path d="M9.9998 11.6667C5.8248 11.6667 2.4248 14.4667 2.4248 17.9167C2.4248 18.15 2.60814 18.3333 2.84147 18.3333H17.1581C17.3915 18.3333 17.5748 18.15 17.5748 17.9167C17.5748 14.4667 14.1748 11.6667 9.9998 11.6667Z" fill="#6C7D98" fill-opacity="0.8"/>
<path d="M9.99967 1.66666C9.01634 1.66666 8.11634 2.00833 7.39967 2.58333C6.44134 3.34166 5.83301 4.51666 5.83301 5.83333C5.83301 6.61666 6.04967 7.35 6.44134 7.975C7.15801 9.18333 8.47467 10 9.99967 10C11.0497 10 12.008 9.61666 12.7413 8.95833C13.0663 8.68333 13.3497 8.35 13.5663 7.975C13.9497 7.35 14.1663 6.61666 14.1663 5.83333C14.1663 3.53333 12.2997 1.66666 9.99967 1.66666ZM12.158 5.38333L9.93301 7.43333C9.78301 7.575 9.59134 7.64166 9.39967 7.64166C9.19967 7.64166 8.99967 7.56666 8.84967 7.41666L7.82467 6.38333C7.51634 6.075 7.51634 5.58333 7.82467 5.275C8.13301 4.96666 8.62467 4.96666 8.93301 5.275L9.42467 5.76666L11.0997 4.225C11.4163 3.93333 11.908 3.95 12.1997 4.26666C12.4913 4.59166 12.4747 5.09166 12.158 5.38333Z" fill="#6C7D98" fill-opacity="0.8"/>
</svg>
