<svg width="20" height="20" viewBox="0 0 20 20" fill="none" xmlns="http://www.w3.org/2000/svg">
<path d="M16.75 7.68287C15.2416 7.68287 14.625 6.61621 15.375 5.30787C15.8083 4.54954 15.55 3.58287 14.7916 3.14954L13.35 2.32454C12.6916 1.93287 11.8416 2.16621 11.45 2.82454L11.3583 2.98287C10.6083 4.29121 9.37496 4.29121 8.61663 2.98287L8.52496 2.82454C8.14996 2.16621 7.29996 1.93287 6.64163 2.32454L5.19996 3.14954C4.44163 3.58287 4.18329 4.55787 4.61663 5.31621C5.37496 6.61621 4.75829 7.68287 3.24996 7.68287C2.38329 7.68287 1.66663 8.39121 1.66663 9.26621V10.7329C1.66663 11.5995 2.37496 12.3162 3.24996 12.3162C4.75829 12.3162 5.37496 13.3829 4.61663 14.6912C4.18329 15.4495 4.44163 16.4162 5.19996 16.8495L6.64163 17.6745C7.29996 18.0662 8.14996 17.8329 8.54163 17.1745L8.63329 17.0162C9.38329 15.7079 10.6166 15.7079 11.375 17.0162L11.4666 17.1745C11.8583 17.8329 12.7083 18.0662 13.3666 17.6745L14.8083 16.8495C15.5666 16.4162 15.825 15.4412 15.3916 14.6912C14.6333 13.3829 15.25 12.3162 16.7583 12.3162C17.625 12.3162 18.3416 11.6079 18.3416 10.7329V9.26621C18.3333 8.39954 17.625 7.68287 16.75 7.68287ZM9.99996 12.7079C8.50829 12.7079 7.29163 11.4912 7.29163 9.99954C7.29163 8.50787 8.50829 7.29121 9.99996 7.29121C11.4916 7.29121 12.7083 8.50787 12.7083 9.99954C12.7083 11.4912 11.4916 12.7079 9.99996 12.7079Z" fill="#6C7D98" fill-opacity="0.8"/>
</svg>
