<svg width="20" height="20" viewBox="0 0 20 20" fill="none" xmlns="http://www.w3.org/2000/svg">
<path d="M13.492 1.66666H6.50866C3.47533 1.66666 1.66699 3.47499 1.66699 6.50832V13.4833C1.66699 16.525 3.47533 18.3333 6.50866 18.3333H13.4837C16.517 18.3333 18.3253 16.525 18.3253 13.4917V6.50832C18.3337 3.47499 16.5253 1.66666 13.492 1.66666ZM7.20033 10.675L10.8503 7.02499H8.82533C8.48366 7.02499 8.20033 6.74166 8.20033 6.39999C8.20033 6.05832 8.48366 5.77499 8.82533 5.77499H12.3587C12.442 5.77499 12.517 5.79166 12.6003 5.82499C12.7503 5.89166 12.8753 6.00832 12.942 6.16666C12.9753 6.24166 12.992 6.32499 12.992 6.40832V9.94166C12.992 10.2833 12.7087 10.5667 12.367 10.5667C12.0253 10.5667 11.742 10.2833 11.742 9.94166V7.91666L8.08366 11.5583C7.95866 11.6833 7.80033 11.7417 7.64199 11.7417C7.48366 11.7417 7.32533 11.6833 7.20033 11.5583C6.95866 11.3167 6.95866 10.9167 7.20033 10.675ZM15.2003 14.35C13.5253 14.9083 11.767 15.1917 10.0003 15.1917C8.23366 15.1917 6.47533 14.9083 4.80033 14.35C4.47533 14.2417 4.30033 13.8833 4.40866 13.5583C4.51699 13.2333 4.86699 13.05 5.20033 13.1667C8.30033 14.2 11.7087 14.2 14.8087 13.1667C15.1337 13.0583 15.492 13.2333 15.6003 13.5583C15.7003 13.8917 15.5253 14.2417 15.2003 14.35Z" fill="#6C7D98" fill-opacity="0.8"/>
</svg>
