<svg width="32" height="32" viewBox="0 0 32 32" fill="none" xmlns="http://www.w3.org/2000/svg">
<path d="M13.667 13.3733C13.667 14.0933 13.867 14.2 14.3203 14.36L15.0003 14.6V12.3333H14.6003C14.0937 12.3333 13.667 12.8 13.667 13.3733Z" fill="#2F99D4"/>
<path d="M17 19.6667H17.4C17.92 19.6667 18.3333 19.2 18.3333 18.6267C18.3333 17.9067 18.1333 17.8 17.68 17.64L17 17.4V19.6667Z" fill="#2F99D4"/>
<path d="M26.107 7.30666L23.3737 10.04C23.1737 10.24 22.9203 10.3333 22.667 10.3333C22.4137 10.3333 22.1603 10.24 21.9603 10.04C21.5737 9.65332 21.5737 9.01332 21.9603 8.62666L24.6937 5.89332C22.347 3.89332 19.3203 2.66666 16.0003 2.66666C8.64033 2.66666 2.66699 8.63999 2.66699 16C2.66699 23.36 8.64033 29.3333 16.0003 29.3333C23.3603 29.3333 29.3337 23.36 29.3337 16C29.3337 12.68 28.107 9.65332 26.107 7.30666ZM18.3337 15.76C19.187 16.0667 20.3337 16.68 20.3337 18.64C20.3337 20.3067 19.0137 21.68 17.4003 21.68H17.0003V22.0133C17.0003 22.56 16.547 23.0133 16.0003 23.0133C15.4537 23.0133 15.0003 22.56 15.0003 22.0133V21.68H14.8937C13.1203 21.68 11.667 20.1867 11.667 18.3467C11.667 17.7867 12.1203 17.3333 12.667 17.3333C13.2137 17.3333 13.667 17.7867 13.667 18.3333C13.667 19.0667 14.2137 19.6667 14.8937 19.6667H15.0003V16.7067L13.667 16.24C12.8137 15.9333 11.667 15.32 11.667 13.36C11.667 11.6933 12.987 10.32 14.6003 10.32H15.0003V9.99999C15.0003 9.45332 15.4537 8.99999 16.0003 8.99999C16.547 8.99999 17.0003 9.45332 17.0003 9.99999V10.3333H17.107C18.8803 10.3333 20.3337 11.8267 20.3337 13.6667C20.3337 14.2133 19.8803 14.6667 19.3337 14.6667C18.787 14.6667 18.3337 14.2133 18.3337 13.6667C18.3337 12.9333 17.787 12.3333 17.107 12.3333H17.0003V15.2933L18.3337 15.76Z" fill="#2F99D4"/>
<path d="M30.2533 2.27999C30.1467 2.03999 29.96 1.83999 29.7067 1.73332C29.5867 1.69332 29.4667 1.66666 29.3333 1.66666H24C23.4533 1.66666 23 2.11999 23 2.66666C23 3.21332 23.4533 3.66666 24 3.66666H26.92L24.6933 5.89332C25.2 6.33332 25.6667 6.79999 26.1067 7.30666L28.3333 5.07999V7.99999C28.3333 8.54666 28.7867 8.99999 29.3333 8.99999C29.88 8.99999 30.3333 8.54666 30.3333 7.99999V2.66666C30.3333 2.53332 30.3067 2.41332 30.2533 2.27999Z" fill="#2F99D4"/>
</svg>
