<svg width="11" height="12" viewBox="0 0 11 12" fill="none" xmlns="http://www.w3.org/2000/svg">
<path d="M9.96875 3.58471C9.96875 3.49305 9.93208 3.40596 9.86792 3.3418L8.16292 1.6368C8.03 1.50388 7.81 1.50388 7.67708 1.6368C7.54417 1.76971 7.54417 1.98971 7.67708 2.12263L8.8 3.24555H1.375C1.18708 3.24555 1.03125 3.40138 1.03125 3.5893C1.03125 3.77721 1.18708 3.92846 1.375 3.92846H8.79542L7.67708 5.0468C7.54417 5.17971 7.54417 5.39971 7.67708 5.53263C7.74583 5.60138 7.83292 5.63346 7.92 5.63346C8.00708 5.63346 8.09417 5.60138 8.16292 5.53263L9.86333 3.83221C9.89542 3.80013 9.92292 3.75888 9.94125 3.71305C9.94125 3.70846 9.94125 3.70388 9.94583 3.6993C9.95958 3.66263 9.96875 3.62596 9.96875 3.58471Z" fill="#1C3E77"/>
<path d="M9.625 8.07153H2.20458L3.32292 6.9532C3.45583 6.82028 3.45583 6.60028 3.32292 6.46736C3.19 6.33445 2.97 6.33445 2.83708 6.46736L1.13667 8.16778C1.10458 8.19986 1.07708 8.24111 1.05875 8.28695C1.05875 8.29153 1.05875 8.29611 1.05417 8.3007C1.04042 8.33736 1.03125 8.37861 1.03125 8.41986C1.03125 8.51153 1.06792 8.59861 1.13208 8.66278L2.83708 10.3678C2.90583 10.4365 2.99292 10.4686 3.08 10.4686C3.16708 10.4686 3.25417 10.4365 3.32292 10.3678C3.45583 10.2349 3.45583 10.0149 3.32292 9.88195L2.2 8.75903H9.625C9.81292 8.75903 9.96875 8.6032 9.96875 8.41528C9.96875 8.22736 9.81292 8.07153 9.625 8.07153Z" fill="#1C3E77"/>
</svg>
